<?xml version="1.0" encoding="utf-8"?>
<!-- Generator: Adobe Illustrator 27.9.0, SVG Export Plug-In . SVG Version: 6.00 Build 0)  -->
<svg version="1.1" id="Layer_1" xmlns="http://www.w3.org/2000/svg" xmlns:xlink="http://www.w3.org/1999/xlink" x="0px" y="0px"
	 viewBox="0 0 1440 320" style="enable-background:new 0 0 1440 320;" xml:space="preserve">
<style type="text/css">
	.st0{clip-path:url(#SVGID_00000001626151064302172980000004640659570138903692_);}
	.st1{fill:#301534;}
	.st2{fill:none;stroke:#AD28EB;stroke-width:3;stroke-linecap:round;}
</style>
<g>
	<defs>
		<rect id="SVGID_1_" width="1440" height="320"/>
	</defs>
	<clipPath id="SVGID_00000128455803094906260710000003711777311656496305_">
		<use xlink:href="#SVGID_1_"  style="overflow:visible;"/>
	</clipPath>
	<g style="clip-path:url(#SVGID_00000128455803094906260710000003711777311656496305_);">
		<path class="st1" d="M0,0h1440v320H0V0z"/>
		<path class="st2" d="M-676-182C-454-10-396.9,71.9-197.5,143.5C-99,178.9-36.9,170.7-4.8,170.1c104.5-2,204.6-43.2,298.6-85.5
			c38.4-17.2,75.9-36.2,112.1-57.6c23.9-14.2,58.9-33.9,64.7-64.4c2.3-12.1-16.4-12.2-23.8-9.8c-13.5,4.5-26,16.5-36.1,25.7
			c-19.1,17.3-37.1,35.9-53.2,56c-33.7,41.9-68,100.2-34.2,152c17.3,26.4,43.9,45.7,72.1,59.1c56.2,26.8,119.2,38.7,180.8,44.1
			c164.4,14.4,329-3.5,483-63.6c79.8-31.1,158.6-70.5,224.2-126.2c48.6-41.2,102.8-96.5,110.7-162.9c10.9-92.2-94-136.1-169.3-148.4
			c-61.4-10.1-123.8-4.2-184.1,9.6c-78.3,17.8-149,47.7-214.2,94.4c-130,93.1-235,228.4-272.5,385.8
			c-15.6,65.6-16.6,138.2,5.5,202.6c21.5,62.3,69.2,110.6,124,144.9c65.1,40.8,137.2,62.1,212.8,73.2c100.5,14.7,202.8,12.2,303-3
			c176.2-26.8,352.7-88.4,505.2-181.1c103.2-62.7,199.3-134.1,280.1-224.4c17.7-19.8,31.8-40.9,43.7-64.5
			c143.6-284.5,67-371.6,67-377"/>
	</g>
</g>
</svg>
